<?xml version="1.0" encoding="utf-8"?>
<!-- Generator: Adobe Illustrator 24.1.2, SVG Export Plug-In . SVG Version: 6.00 Build 0)  -->
<svg version="1.1" id="Layer_1" xmlns="http://www.w3.org/2000/svg" xmlns:xlink="http://www.w3.org/1999/xlink" x="0px" y="0px"
	 viewBox="0 0 200 88" style="enable-background:new 0 0 200 88;" xml:space="preserve">
<style type="text/css">
	.st0{fill:#2A2E43;}
</style>
<g id="Group_556" transform="translate(1344 2322)">
	<path id="Path_2124" class="st0" d="M-1217.26-2254.22l0.01-0.04L-1217.26-2254.22z"/>
	<path id="Path_2125" class="st0" d="M-1222.33-2234.44c-4.21,0.01-8.34-1.18-11.91-3.42c-1.83-1.14-2.78-3.28-2.38-5.4l1.1-5.66
		c0.32-1.62,1.73-2.79,3.39-2.79h10.16c2.48,0,4.61-1.76,5.08-4.19l4.17-21.46c0.31-1.62,1.73-2.79,3.39-2.79h10.24
		c1.9,0,3.45,1.54,3.45,3.45c0,0.22-0.02,0.44-0.06,0.66l-4.73,24.33c-2.32,9.66-10.69,16.66-20.61,17.23L-1222.33-2234.44z"/>
	<path id="Path_2126" class="st0" d="M-1277.17-2254.22c0.43,0,0.85-0.02,1.27-0.04c3.84-0.21,7.57-1.41,10.81-3.49
		c3.61,2.31,7.8,3.53,12.09,3.53c0.43,0,0.85-0.01,1.28-0.04c9.92-0.57,18.3-7.57,20.61-17.23l4.25-21.85
		c0.36-1.84-0.84-3.63-2.69-3.98c-0.21-0.04-0.43-0.06-0.65-0.06h-10.3c-1.65,0-3.07,1.17-3.39,2.79l-3.96,20.36
		c-0.31,1.6-1.71,2.75-3.33,2.75l0,0c-1.87,0-3.38-1.51-3.38-3.38c0-0.22,0.02-0.43,0.06-0.64l1.82-9.13
		c0.37-1.87-0.84-3.68-2.71-4.06c-0.22-0.04-0.45-0.07-0.67-0.07h-10.22c-1.64,0-3.06,1.16-3.38,2.77l-2.07,10.32
		c-0.47,2.43-2.6,4.19-5.08,4.19h-61.72c-1.65,0-3.07,1.17-3.39,2.79l-2.01,10.37c-0.36,1.87,0.86,3.68,2.73,4.04
		c0.22,0.04,0.44,0.06,0.66,0.06L-1277.17-2254.22z"/>
	<path id="Path_2127" class="st0" d="M-1170.19-2254.22h-6.91c-4.21,0.01-8.34-1.18-11.9-3.41c-1.83-1.14-2.78-3.28-2.38-5.4
		l10.83-55.72c0.32-1.62,1.73-2.79,3.39-2.79h10.24c1.9,0,3.45,1.54,3.45,3.45c0,0.22-0.02,0.44-0.06,0.66l-8.15,41.92
		c-0.36,1.84,0.84,3.62,2.68,3.97c1.84,0.36,3.62-0.84,3.97-2.68l3.96-20.36c0.32-1.62,1.73-2.79,3.39-2.79h10.24
		c1.9,0,3.45,1.54,3.45,3.45c0,0.22-0.02,0.44-0.06,0.66l-4.24,21.79c-2.32,9.66-10.69,16.66-20.61,17.22l-0.88,0.04
		L-1170.19-2254.22z"/>
	<path id="Path_2128" class="st0" d="M-1244.52-2242.36l-14.56,4.17c-0.92,0.26-1.87-0.27-2.14-1.18c-0.08-0.26-0.09-0.54-0.04-0.81
		l0.74-3.8c0.12-0.64,0.59-1.15,1.22-1.33l14.55-4.17c0.92-0.26,1.87,0.27,2.14,1.18c0.08,0.26,0.09,0.54,0.04,0.81l-0.74,3.8
		C-1243.42-2243.05-1243.89-2242.54-1244.52-2242.36"/>
	<path id="Path_2129" class="st0" d="M-1165.14-2234.44h-10.22c-1.91,0-3.45-1.54-3.45-3.45c0-0.22,0.02-0.44,0.06-0.66l1.17-6.04
		c0.32-1.62,1.73-2.79,3.39-2.79h10.22c1.9,0,3.45,1.54,3.45,3.45c0,0.22-0.02,0.44-0.06,0.66l-1.17,6.04
		C-1162.07-2235.61-1163.48-2234.44-1165.14-2234.44"/>
	<path id="Path_2130" class="st0" d="M-1227.5-2304.29h-10.22c-1.91,0-3.45-1.54-3.45-3.45c0-0.22,0.02-0.44,0.06-0.66l1.17-6.04
		c0.32-1.62,1.74-2.79,3.39-2.79h10.22c1.9,0,3.45,1.54,3.45,3.45c0,0.22-0.02,0.44-0.06,0.66l-1.17,6.04
		C-1224.42-2305.46-1225.84-2304.29-1227.5-2304.29"/>
	<path id="Path_2131" class="st0" d="M-1307.3-2284.45h-18.82c-1.9,0-3.45-1.54-3.45-3.45c0-0.22,0.02-0.44,0.06-0.66l1.17-6.03
		c0.31-1.62,1.73-2.79,3.39-2.79h18.82c1.9,0,3.45,1.54,3.45,3.45c0,0.22-0.02,0.44-0.06,0.66l-1.17,6.04
		C-1304.23-2285.62-1305.65-2284.45-1307.3-2284.45"/>
</g>
</svg>
