<?xml version="1.0" encoding="utf-8"?>
<!-- Generator: Adobe Illustrator 24.0.0, SVG Export Plug-In . SVG Version: 6.00 Build 0)  -->
<svg version="1.1" id="Layer_1" xmlns="http://www.w3.org/2000/svg" xmlns:xlink="http://www.w3.org/1999/xlink" x="0px" y="0px"
	 viewBox="0 0 604 474" style="enable-background:new 0 0 604 474;" xml:space="preserve">
<style type="text/css">
	.st0{fill:none;stroke:#2A2E43;stroke-width:2;stroke-linecap:round;stroke-linejoin:round;stroke-miterlimit:10;}
</style>
<path class="st0" d="M75.6,50.1c-0.6-2.1-1.3-4.2-2.1-6.3c-0.8-2.1-1.6-4.1-2.4-6l-15,7.4c0.8,1.7,1.7,3.4,2.5,5.2
	c0.9,1.8,1.7,3.4,2.4,5c0.7,1.5,1.3,2.9,1.8,4.1c0.5,1.2,0.7,2.1,0.7,2.7c0,0.5-0.2,1-0.6,1.4c-0.4,0.4-1,0.7-1.7,1
	c-0.7,0.3-1.5,0.6-2.3,0.8s-1.8,0.4-2.7,0.5c-0.9,0.1-1.8,0.2-2.7,0.3c-0.9,0.1-1.6,0.1-2.3,0.1h-7.8c-0.7,0-1.3-0.2-1.8-0.6
	S40.6,64.2,40,63c-0.6-1.2-1.3-2.9-2.2-5s-1.9-5-3.2-8.5l-15.2,7c0.9,2.2,1.7,4.1,2.4,5.7c0.6,1.6,1.2,3.1,1.7,4.5s1,2.7,1.4,4
	c0.4,1.3,0.8,2.6,1.2,4.1c-0.3,2.5-1.2,4.8-2.6,7.1s-3.2,4.4-5.3,6.4s-4.6,4-7.3,5.8c-2.7,1.8-5.6,3.6-8.6,5.2l10.1,13
	c3.4-1.8,6.5-3.8,9.5-6c3-2.2,5.6-4.6,8-7.2s4.4-5.3,6-8.2c1.7-2.9,2.9-5.9,3.6-9.1c1,0.4,1.8,0.6,2.4,0.7c0.3,0,0.6,0.1,0.9,0.1v0
	h9.1c3.6,0,7-0.4,10.1-1.2c3.1-0.8,5.8-2,8.2-3.7s4.1-3.8,5.5-6.4c1.3-2.6,2-5.7,2-9.4c0-1.8-0.2-3.7-0.6-5.7
	C76.7,54.2,76.2,52.1,75.6,50.1z M62.3,24.3l-7.9-7.9l-8,8.1l8.1,8.1l7.8-7.9l7.9,7.9l8-8.1l-8.1-8.1L62.3,24.3z M136.4,50.2
	l-9.3-9.3l-9.3,9.3l9.3,9.3L136.4,50.2z M159.5,68.9c-0.5-1.9-1.1-3.8-1.7-5.7s-1.3-3.7-1.9-5.3c-0.6-1.7-1.2-3.2-1.8-4.5
	c-0.6-1.3-1.1-2.4-1.5-3.2l-13.8,7.7c0.7,1.6,1.5,3.3,2.4,5.1c0.9,1.8,1.7,3.7,2.5,5.7c0.8,1.9,1.4,3.8,2,5.8c0.6,1.9,0.9,3.7,1,5.4
	c-0.1,2.1-0.8,4-2,5.8c-1.2,1.8-2.7,3.4-4.6,4.7s-4,2.4-6.4,3.2s-4.9,1.2-7.6,1.2c-2.1-0.1-4.2-0.6-6.3-1.3s-3.9-1.7-5.6-2.9
	c-1.6-1.2-2.9-2.6-3.9-4.2c-1-1.6-1.5-3.4-1.5-5.4c0-1.7,0.2-3.5,0.7-5.4c0.4-1.9,1-3.8,1.6-5.6s1.3-3.5,2.1-5
	c0.8-1.5,1.4-2.8,2.1-3.9L103,52.4c-3,4.8-5.2,9.6-6.7,14.3c-1.5,4.7-2.3,9.3-2.3,13.9c0,5.1,0.8,9.6,2.4,13.4
	c1.6,3.8,3.9,7.1,6.8,9.6s6.5,4.5,10.6,5.8c4.1,1.3,8.7,1.9,13.8,1.9c3.8,0,7.3-0.4,10.5-1.2s6-2,8.5-3.5c2.5-1.5,4.7-3.2,6.5-5.3
	c1.8-2,3.4-4.2,4.6-6.6c1.2-2.3,2.1-4.8,2.7-7.4c0.6-2.6,0.9-5.2,0.9-7.8c0-1.6-0.2-3.3-0.5-5.1C160.4,72.7,160,70.8,159.5,68.9z
	 M594.9,2c-0.6,0.8-1.1,1.4-1.6,1.8c-0.5,0.5-0.9,0.8-1.4,1.1s-0.9,0.4-1.3,0.5c-0.4,0.1-0.9,0.1-1.4,0.1c-0.9,0-1.8-0.1-2.6-0.4
	c-0.8-0.3-1.7-0.6-2.5-0.9c-0.8-0.3-1.7-0.6-2.6-0.9c-0.9-0.3-1.8-0.4-2.8-0.4c-1.4,0-2.7,0.2-4,0.7s-2.5,1.2-3.6,2.1
	s-2.1,2-2.9,3.3s-1.5,2.8-1.9,4.4l8.1,3c0.4-1.6,1.1-2.8,2-3.5s1.8-1,2.8-1c0.9,0,1.7,0.1,2.4,0.4s1.5,0.6,2.3,0.9
	c0.8,0.3,1.6,0.6,2.5,0.9c0.9,0.3,1.9,0.4,2.9,0.4c1.7,0,3.3-0.4,4.8-1.2s2.8-1.6,4-2.6s2-1.9,2.7-2.7c0.7-0.8,1-1.3,1.1-1.5
	L594.9,2z M591.8,37.2c-0.1-2.9-0.3-6-0.6-9.2c-0.3-3.3-0.6-6.6-1.1-10.1l-15.6,4.8c0.5,3.9,0.9,8.8,1.2,14.7s0.5,12.8,0.5,20.7
	c0,1.6,0,3.4-0.1,5.4c-0.1,1.9-0.1,3.9-0.2,6s-0.2,4.1-0.3,6.1s-0.2,4-0.3,5.8l16.3-2.5c0.1-2.2,0.2-4.6,0.3-7.1
	c0.1-2.5,0.2-4.9,0.2-7.3c0-2.4,0.1-4.7,0.1-6.9s0-4.2,0-6c0-1.8,0-3.9-0.1-6.3C592.1,42.7,592,40.1,591.8,37.2z M564.1,49.5
	c-0.7-2.3-1.4-4.5-2.3-6.5c-0.8-2.1-1.6-3.9-2.4-5.6l-12.4,6.9c0.3,0.6,0.7,1.3,1.2,2.3c0.5,1,1,2.1,1.5,3.3c0.5,1.2,1,2.5,1.5,3.9
	c0.5,1.4,0.9,2.7,1.2,4.1s0.5,2.6,0.5,3.9c0.1,1.2-0.1,2.3-0.5,3.3c-0.4,1-1,1.7-1.8,2.3c-0.8,0.6-2,0.8-3.5,0.8c-1,0-1.8-0.3-2.4-1
	s-1-1.5-1.2-2.5c-0.2-1-0.4-2.2-0.4-3.5c0-1.3,0-2.6,0.2-4c0.1-1.3,0.2-2.6,0.4-3.9s0.3-2.3,0.4-3.2l-12.5-2.1
	c-0.2,1.3-0.5,2.6-0.7,4.1s-0.6,2.9-0.9,4.3c-0.3,1.5-0.8,2.8-1.2,4.2c-0.5,1.3-1,2.5-1.7,3.6c-0.6,1-1.3,1.9-2.1,2.5
	c-0.8,0.7-1.7,1-2.7,1.1c-0.5,0-0.9-0.3-1.2-0.9c-0.2-0.6-0.4-1.3-0.4-2.3c0-0.9,0.1-2,0.2-3.2s0.3-2.5,0.6-3.7
	c0.2-1.3,0.5-2.5,0.8-3.8s0.6-2.4,0.8-3.4l-14-2.6c-0.6,2.5-1.3,4.8-2,7c-0.7,2.2-1.5,4.2-2.3,5.8c-0.9,1.7-1.9,3-3.1,4
	c-1.2,1-2.7,1.5-4.5,1.5H187.2v0c-1.1,0-1.9-0.1-2.6-0.4c-0.7-0.3-1.2-0.8-1.5-1.5c-0.3-0.7-0.4-1.5-0.5-2.6c0-1,0-2.2,0-3.4
	c0-3.6,0.1-7.4,0.1-11.3c0.1-3.9,0.1-7.9,0.1-11.9c0-4-0.2-8-0.5-11.9s-0.8-7.7-1.5-11.4l-15.7,4.8c0.6,4,1,7.9,1.3,11.8
	c0.2,3.9,0.4,7.7,0.4,11.6c0.1,3.8,0.1,7.6,0,11.4s-0.1,7.6-0.1,11.3c0,2.9,0.4,5.5,1.1,8c0.8,2.4,1.9,4.6,3.6,6.3
	c1.6,1.8,3.8,3.2,6.4,4.2c2.5,1,5.6,1.5,9.1,1.5v0h311l0,0c1.6,0,3-0.2,4.4-0.5c1.4-0.3,2.7-0.7,3.8-1.2c1.1-0.5,2-1.1,2.8-1.9
	c0.8-0.7,1.4-1.5,1.8-2.3c0.4,0.8,1,1.6,1.8,2.4s1.6,1.5,2.6,2.1s2.1,1.1,3.3,1.4s2.5,0.5,3.8,0.5c1.5,0,2.9-0.2,4.2-0.6
	c1.3-0.4,2.4-0.9,3.4-1.5c1-0.6,1.9-1.3,2.7-2.1s1.4-1.6,2-2.4c0.5,0.7,1.1,1.4,1.9,2.2c0.8,0.8,1.7,1.5,2.8,2.2
	c1,0.7,2.2,1.2,3.4,1.6s2.6,0.7,4,0.7c3.4,0,6.3-0.5,8.8-1.4c2.5-0.9,4.6-2.2,6.2-4c1.6-1.7,2.9-3.8,3.7-6.2
	c0.8-2.4,1.2-5.2,1.2-8.2c0-2.2-0.2-4.5-0.7-6.8C565.4,54.1,564.8,51.8,564.1,49.5z"/>
<path class="st0" d="M185.4,172.1c-0.4-2-0.9-4.1-1.5-6.2s-1.3-4.2-2.1-6.3c-0.8-2.1-1.6-4.1-2.4-6l-14.9,7.4
	c0.8,1.7,1.7,3.4,2.6,5.2c0.9,1.8,1.7,3.4,2.4,4.9c0.7,1.5,1.3,2.9,1.8,4.1c0.5,1.2,0.7,2.1,0.7,2.6c0,0.5-0.2,1-0.6,1.4
	s-1,0.7-1.6,1c-0.7,0.3-1.5,0.6-2.3,0.8c-0.9,0.2-1.8,0.4-2.7,0.5c-0.9,0.1-1.8,0.2-2.6,0.3c-0.9,0.1-1.6,0.1-2.3,0.1h-9.1
	c-1.7,0-3.3-0.1-4.7-0.4s-2.9-0.7-4.3-1.2c1.4-0.9,2.6-1.9,3.7-3c1.1-1,2.1-2.2,2.9-3.3c0.8-1.2,1.4-2.5,1.9-3.8
	c0.4-1.4,0.7-2.9,0.8-4.5c0-1.8-0.3-3.5-0.9-5s-1.4-2.9-2.5-4c-1.1-1.2-2.3-2.2-3.7-3.1s-2.9-1.6-4.5-2.1c-1.6-0.6-3.2-1-4.9-1.3
	c-1.7-0.3-3.3-0.4-4.9-0.4c-2.6,0-5.1,0.1-7.4,0.5c-2.3,0.3-4.5,0.9-6.7,1.6s-4.4,1.8-6.7,3.2c-2.2,1.3-4.7,3-7.2,5.1l1,10.9
	c1.3,1.2,2.6,2.3,3.8,3.3s2.5,2.1,3.7,3.1c-2.3,1.4-4.5,3.1-6.6,4.9c-2.1,1.8-3.8,3.9-5.3,6.1c-1.5,2.2-2.7,4.6-3.6,7.1
	s-1.3,5.2-1.3,7.9c0.1,3.6,0.7,6.8,1.8,9.6c1.1,2.8,2.6,5.2,4.3,7.3c1.8,2.1,3.8,3.8,6.1,5.2c2.3,1.4,4.6,2.6,7,3.5s4.7,1.5,7.1,1.9
	c2.3,0.4,4.4,0.6,6.3,0.6c2,0.1,4.2-0.1,6.6-0.6c2.3-0.4,4.7-1,7-1.8c2.3-0.8,4.6-1.7,6.8-2.8c2.2-1.1,4.2-2.3,6-3.6l-8.2-13.1
	c-2.8,1.7-5.6,3.1-8.6,4.1s-5.8,1.5-8.6,1.5c-1.3,0-2.7-0.1-4.2-0.3c-1.5-0.2-2.9-0.5-4.3-1c-1.4-0.4-2.8-1-4.1-1.6
	s-2.4-1.4-3.4-2.2c-1-0.9-1.8-1.8-2.4-2.9c-0.6-1.1-0.9-2.3-0.9-3.6c0-1.1,0.2-2.2,0.7-3.3s1.1-2,1.9-2.9s1.8-1.8,2.8-2.6
	c1.1-0.8,2.2-1.5,3.4-2.2c1.2-0.7,2.4-1.3,3.7-1.9c1.3-0.6,2.5-1.1,3.7-1.6c2.1,1.4,4.2,2.7,6.4,3.9c2.1,1.2,4.3,2.2,6.5,3
	s4.4,1.5,6.7,2c2.3,0.5,4.7,0.7,7.4,0.7l2.3,0h7.4c3.6,0,6.9-0.4,10.1-1.2c3.1-0.8,5.9-2,8.2-3.7s4.1-3.8,5.5-6.4s2-5.7,2-9.4
	C186,176,185.8,174.1,185.4,172.1z M135.7,166.5c-0.8,0.7-1.8,1.5-2.9,2.2s-2.3,1.5-3.6,2.1c-1.3,0.7-2.5,1.2-3.8,1.6
	c-0.7-0.4-1.4-0.9-2.2-1.5s-1.7-1.3-2.5-2c-0.8-0.7-1.6-1.4-2.3-2c-0.7-0.6-1.3-1.2-1.7-1.6c0.8-0.3,1.7-0.6,2.7-0.8
	c1-0.3,2.1-0.5,3.2-0.7s2.2-0.4,3.4-0.5c1.2-0.1,2.3-0.2,3.3-0.1c0.8,0,1.6,0.1,2.4,0.2c0.8,0.1,1.6,0.2,2.3,0.4
	c0.7,0.1,1.4,0.3,2,0.5c0.6,0.2,1,0.3,1.3,0.5C137.1,165.1,136.5,165.7,135.7,166.5z M62.2,140.2l-7.9-7.9l-8,8.1l8.1,8.1l7.8-7.9
	l7.9,7.9l8-8.1l-8.1-8.1L62.2,140.2z M75.5,165.9c-0.6-2.1-1.3-4.2-2.1-6.3c-0.8-2.1-1.6-4.1-2.4-6L56,161c0.8,1.7,1.7,3.4,2.5,5.2
	c0.9,1.8,1.7,3.4,2.4,4.9c0.7,1.5,1.3,2.9,1.8,4.1c0.5,1.2,0.7,2.1,0.7,2.6c0,0.5-0.2,1-0.6,1.4c-0.4,0.4-1,0.7-1.7,1
	c-0.7,0.3-1.5,0.6-2.3,0.8s-1.8,0.4-2.7,0.5c-0.9,0.1-1.8,0.2-2.7,0.3c-0.9,0.1-1.6,0.1-2.3,0.1h-7.8c-0.7,0-1.3-0.2-1.8-0.6
	s-1.1-1.2-1.7-2.4s-1.3-2.9-2.2-5s-1.9-5-3.2-8.4l-15.2,7c0.9,2.2,1.7,4.1,2.4,5.7c0.6,1.6,1.2,3.1,1.7,4.5c0.5,1.4,1,2.7,1.4,4
	c0.4,1.3,0.8,2.6,1.2,4.1c-0.3,2.5-1.2,4.8-2.6,7.1s-3.2,4.4-5.3,6.4s-4.6,4-7.3,5.8c-2.7,1.8-5.6,3.6-8.6,5.2l10.1,13
	c3.4-1.8,6.5-3.8,9.5-6c3-2.2,5.6-4.6,8-7.2c2.4-2.6,4.4-5.3,6-8.2c1.7-2.9,2.9-5.9,3.6-9.1c1,0.4,1.8,0.6,2.4,0.7
	c0.3,0,0.6,0.1,0.9,0.1v0h9.1c3.6,0,7-0.4,10.1-1.2c3.1-0.8,5.8-2,8.2-3.7c2.3-1.7,4.1-3.8,5.5-6.4c1.3-2.6,2-5.7,2-9.4
	c0-1.8-0.2-3.7-0.6-5.7C76.6,170,76.1,168,75.5,165.9z M167.9,208.7l-7.9-7.9l-8,8.1l8.1,8.1l7.9-7.9l7.9,7.9l8-8.1l-8.1-8.1
	L167.9,208.7z M601.2,172.3c-0.5-2.4-1-4.7-1.7-6.9s-1.4-4.5-2.3-6.5c-0.8-2.1-1.6-3.9-2.4-5.6l-12.4,6.9c0.3,0.6,0.7,1.3,1.2,2.3
	c0.5,1,1,2.1,1.5,3.3c0.5,1.2,1,2.5,1.5,3.9c0.5,1.4,0.9,2.7,1.2,4.1c0.3,1.4,0.5,2.6,0.5,3.9c0.1,1.2-0.1,2.3-0.5,3.3
	c-0.4,1-1,1.7-1.8,2.3c-0.8,0.6-2,0.8-3.5,0.8c-1,0-1.8-0.3-2.4-1s-1-1.5-1.2-2.5c-0.2-1-0.4-2.2-0.4-3.5c0-1.3,0-2.6,0.2-4
	c0.1-1.3,0.2-2.6,0.4-3.9s0.3-2.3,0.4-3.2l-12.5-2.1c-0.2,1.3-0.5,2.6-0.7,4.1s-0.6,2.9-0.9,4.3c-0.3,1.4-0.8,2.8-1.2,4.2
	s-1,2.5-1.7,3.6s-1.3,1.9-2.1,2.5c-0.8,0.6-1.7,1-2.7,1.1c-0.5,0-0.9-0.3-1.2-0.9c-0.2-0.6-0.4-1.3-0.4-2.3c0-0.9,0.1-2,0.2-3.2
	s0.3-2.4,0.6-3.7c0.2-1.3,0.5-2.5,0.8-3.8s0.6-2.4,0.8-3.4l-14-2.6c-0.6,2.5-1.3,4.8-2,7c-0.7,2.2-1.5,4.1-2.3,5.8
	c-0.9,1.7-1.9,3-3.2,4c-1.2,1-2.7,1.5-4.5,1.5H227.1c-0.7,0-1.3-0.2-1.8-0.6c-0.5-0.4-1.1-1.2-1.7-2.4s-1.3-2.9-2.1-5
	c-0.8-2.2-1.9-5-3.1-8.4l-15.2,7c0.9,2.2,1.7,4.1,2.4,5.7c0.6,1.6,1.2,3.1,1.7,4.5c0.5,1.4,0.9,2.7,1.4,4c0.4,1.3,0.8,2.6,1.2,4.1
	c-0.3,2.5-1.2,4.8-2.6,7.1s-3.2,4.4-5.3,6.4c-2.1,2-4.6,4-7.3,5.8s-5.6,3.6-8.6,5.2l10.1,13c3.4-1.8,6.5-3.8,9.5-6
	c3-2.2,5.6-4.6,8-7.2c2.4-2.6,4.4-5.3,6-8.2c1.7-2.9,2.9-5.9,3.6-9.1c1,0.4,1.8,0.6,2.4,0.7c0.3,0,0.6,0.1,0.9,0.1v0h307l0,0
	c1.6,0,3-0.2,4.4-0.5c1.4-0.3,2.7-0.7,3.8-1.2c1.1-0.5,2-1.1,2.8-1.9c0.8-0.7,1.4-1.5,1.8-2.3c0.4,0.8,1,1.6,1.8,2.4
	s1.6,1.5,2.6,2.1s2.1,1.1,3.3,1.4s2.5,0.5,3.8,0.5c1.5,0,2.9-0.2,4.2-0.6c1.3-0.4,2.4-0.9,3.4-1.5c1-0.6,1.9-1.3,2.7-2.1
	s1.4-1.6,2-2.4c0.5,0.7,1.1,1.4,1.9,2.2c0.8,0.8,1.7,1.5,2.8,2.1c1,0.6,2.2,1.2,3.4,1.6c1.2,0.4,2.6,0.6,4,0.6
	c3.4,0,6.3-0.5,8.8-1.4c2.5-0.9,4.6-2.2,6.2-4c1.6-1.7,2.9-3.8,3.7-6.2c0.8-2.4,1.2-5.2,1.2-8.2
	C601.9,176.9,601.6,174.6,601.2,172.3z"/>
<path class="st0" d="M75.6,289c-0.6-2.1-1.3-4.2-2.1-6.3s-1.6-4.1-2.4-6l-15,7.4c0.8,1.7,1.7,3.4,2.5,5.2c0.9,1.8,1.7,3.4,2.4,5
	c0.7,1.5,1.3,2.9,1.8,4.1c0.5,1.2,0.7,2.1,0.7,2.6c0,0.5-0.2,1-0.6,1.4c-0.4,0.4-1,0.7-1.7,1c-0.7,0.3-1.5,0.6-2.3,0.8
	s-1.8,0.4-2.7,0.5s-1.8,0.2-2.7,0.3c-0.9,0.1-1.6,0.1-2.3,0.1h-7.8c-0.7,0-1.3-0.2-1.8-0.6s-1.1-1.2-1.7-2.4s-1.3-2.9-2.2-5
	s-1.9-5-3.2-8.5l-15.2,7c0.9,2.2,1.7,4.1,2.4,5.7c0.6,1.6,1.2,3.1,1.7,4.5s1,2.7,1.4,4c0.4,1.3,0.8,2.6,1.2,4.1
	c-0.3,2.5-1.2,4.8-2.6,7.1s-3.2,4.4-5.3,6.4s-4.6,4-7.3,5.8c-2.7,1.8-5.6,3.6-8.6,5.2l10.1,13c3.4-1.8,6.5-3.8,9.5-6
	c3-2.2,5.6-4.6,8-7.2s4.4-5.3,6-8.2c1.7-2.9,2.9-5.9,3.6-9.1c1,0.4,1.8,0.6,2.4,0.7c0.3,0,0.6,0,0.9,0.1v0h9.1c3.6,0,7-0.4,10.1-1.2
	s5.9-2,8.2-3.7c2.3-1.7,4.1-3.8,5.5-6.4c1.3-2.6,2-5.7,2-9.4c0-1.8-0.2-3.7-0.6-5.7C76.7,293.1,76.2,291.1,75.6,289z M165.3,254.4
	l-9.3-9.3l-9.3,9.3l9.3,9.3L165.3,254.4z M62.3,263.3l-7.9-7.9l-8,8.1l8.1,8.1l7.8-7.9l7.9,7.9l8-8.1l-8.1-8.1L62.3,263.3z
	 M175.4,306.2c0.9-2.8,1.4-6.1,1.4-10c0-2.1-0.2-4.3-0.6-6.6s-1-4.5-1.8-6.6c-0.8-2.2-1.8-4.2-2.9-6.1c-1.2-1.9-2.5-3.6-4-5.1
	c-1.5-1.5-3.2-2.6-5.1-3.5s-3.9-1.3-6-1.3c-1.8,0-3.5,0.3-5,1c-1.6,0.6-2.9,1.5-4.2,2.6c-1.2,1.1-2.4,2.4-3.3,3.8
	c-1,1.5-1.8,3-2.5,4.6s-1.2,3.3-1.5,5c-0.3,1.7-0.5,3.4-0.5,5c0,2.8,0.6,5.2,1.6,7.1c1.1,1.9,2.6,3.4,4.6,4.5c1.9,1.1,4.3,2,6.9,2.4
	c2.7,0.5,5.6,0.8,8.8,0.9c-0.8,0.2-1.8,0.3-3.1,0.4c-1.2,0.1-2.6,0.2-4.1,0.3c-1.5,0.1-3,0.1-4.6,0.2c-1.6,0-3.1,0.1-4.4,0.1
	c-1.4,0-2.6,0-3.7,0h-3c-1.1,0-1.9-0.1-2.5-0.3s-1-0.6-1.2-1.1c-0.1-0.1-0.2-1-0.5-2.6s-0.6-4-1-7c-0.4-3-0.9-6.7-1.4-11
	c-0.5-4.3-1.1-9.2-1.7-14.7l-16.3,3.5l0.6,5.1c-1.1,0.5-2.4,1.1-3.9,1.9s-2.9,1.7-4.4,2.7c-1.5,1-2.9,2.2-4.4,3.5
	c-1.4,1.3-2.7,2.7-3.8,4.3c-1.1,1.5-2,3.2-2.7,5c-0.7,1.8-1,3.6-1,5.5c0,2.8,0.6,5.2,1.7,7.3s2.6,3.7,4.6,5s4.2,2.3,6.8,2.9
	c2.6,0.6,5.4,0.9,8.3,0.9c1.2,0,2.3,0,3.6-0.1c1.2-0.1,2.4-0.2,3.7-0.3c1.5,2.2,3.6,3.8,6.2,4.8c2.5,1,5.4,1.4,8.5,1.5v0h1.7l0,0
	c3.3,0,6.5-0.1,9.6-0.2c3.2-0.2,6.2-0.5,9-1.1s5.4-1.4,7.7-2.5c2.3-1.1,4.3-2.6,6-4.5C173.2,311.3,174.5,309,175.4,306.2z
	 M114.4,300.8c-1.3,0-2.5-0.1-3.6-0.3c-1.1-0.2-2.1-0.4-2.8-0.7c-0.8-0.3-1.2-0.6-1.2-0.9c-0.1-0.4,0.2-1,0.7-1.8
	c0.6-0.8,1.3-1.6,2.2-2.5c0.9-0.9,2-1.7,3.1-2.5s2.3-1.4,3.5-1.9l1.5,10.1C116.8,300.7,115.6,300.8,114.4,300.8z M161.2,290.7
	c-0.9,0-1.8-0.1-2.7-0.2c-0.9-0.1-1.9-0.3-2.9-0.5c-1-0.2-1.8-0.5-2.6-0.8c-0.8-0.3-1.4-0.6-1.9-0.9c-0.5-0.3-0.7-0.6-0.7-0.9
	c0-0.7,0.1-1.4,0.4-2.2s0.6-1.5,1.1-2.1s1.1-1.2,1.8-1.6c0.7-0.4,1.5-0.6,2.4-0.5c0.8,0.1,1.6,0.4,2.3,1s1.5,1.4,2.1,2.3
	c0.6,0.9,1.2,1.9,1.7,3s0.9,2.1,1.1,3.1C162.8,290.6,162.1,290.7,161.2,290.7z M601.2,295.2c-0.4-2-0.9-4.1-1.5-6.2
	s-1.3-4.2-2.1-6.3s-1.6-4.1-2.4-6l-15,7.4c0.8,1.7,1.7,3.4,2.5,5.2c0.9,1.8,1.7,3.4,2.4,5c0.7,1.5,1.3,2.9,1.8,4.1s0.7,2.1,0.7,2.6
	c0,0.8-0.4,1.4-1.2,1.9c-0.8,0.5-1.7,0.9-2.8,1.2s-2.3,0.5-3.5,0.7c-1.3,0.1-2.4,0.2-3.4,0.2h-4.4c-1.1,0-1.9-0.1-2.5-0.3
	s-1-0.6-1.2-1.1c-0.1-0.1-0.2-1-0.5-2.6s-0.6-4-1-7c-0.4-3-0.9-6.7-1.4-11s-1.1-9.2-1.7-14.7l-16.3,3.5l0.6,5.1
	c-1.1,0.5-2.4,1.1-3.9,1.9s-2.9,1.7-4.4,2.7c-1.5,1-2.9,2.2-4.4,3.5c-1.4,1.3-2.7,2.7-3.8,4.3c-1.1,1.5-2,3.2-2.7,5
	c-0.7,1.8-1,3.6-1,5.5c0,2.8,0.6,5.2,1.7,7.3s2.6,3.7,4.6,5s4.2,2.3,6.8,2.9s5.4,0.9,8.3,0.9c1.2,0,2.3,0,3.5-0.1s2.4-0.2,3.7-0.3
	c1.5,2.2,3.6,3.8,6.2,4.8c2.5,1,5.4,1.4,8.5,1.5v0h5.8c3.6,0,6.9-0.4,9.9-1.2s5.6-2,7.7-3.7c2.1-1.7,3.8-3.8,5-6.4s1.8-5.7,1.8-9.4
	C601.7,299.1,601.6,297.2,601.2,295.2z M548.3,300.8c-1.3,0-2.5-0.1-3.6-0.3c-1.1-0.2-2-0.4-2.8-0.7c-0.8-0.3-1.2-0.6-1.2-0.9
	c-0.1-0.4,0.2-1,0.7-1.8c0.6-0.8,1.3-1.6,2.2-2.5c0.9-0.9,2-1.7,3.1-2.5s2.3-1.4,3.5-1.9l1.5,10.1
	C550.7,300.7,549.5,300.8,548.3,300.8z M575.7,333.5l9.3,9.3l9.3-9.3l-9.3-9.3L575.7,333.5z M506.1,283.9c-1.9-1.9-4.2-3.4-7-4.5
	c-2.8-1.1-6-1.7-9.7-1.6c-2.5,0-5,0.3-7.3,1c-2.3,0.6-4.5,1.5-6.6,2.6c-2.1,1.1-4.1,2.4-6,3.9s-3.7,3.1-5.3,4.8
	c-1.7,1.7-3.2,3.4-4.6,5.3s-2.7,3.6-3.8,5.4c0-0.7,0.1-1.4,0.2-2.3s0.3-1.8,0.5-2.7c0.2-0.9,0.4-1.8,0.6-2.7
	c0.2-0.9,0.4-1.7,0.6-2.5l-13.4-4.5c-0.7,2.9-1.3,5.3-1.8,7.1c-0.5,1.8-0.9,3.3-1.3,4.4s-0.7,2-1,2.6s-0.6,1.2-1,1.7
	c-0.2,0.2-0.4,0.5-0.8,0.9c-0.4,0.4-0.8,0.7-1.4,1.1c-0.6,0.4-1.3,0.7-2.2,0.9c-0.9,0.3-1.9,0.4-3.1,0.4H211.7
	c-0.7,0-1.3-0.2-1.8-0.6s-1.1-1.2-1.7-2.4s-1.3-2.9-2.1-5c-0.8-2.2-1.9-5-3.1-8.5l-15.2,7c0.9,2.2,1.7,4.1,2.4,5.7s1.2,3.1,1.7,4.5
	s0.9,2.7,1.4,4c0.4,1.3,0.8,2.6,1.2,4.1c-0.3,2.5-1.2,4.8-2.6,7.1s-3.2,4.4-5.3,6.4c-2.1,2-4.6,4-7.3,5.8c-2.7,1.8-5.6,3.6-8.6,5.2
	l10.1,13c3.4-1.8,6.5-3.8,9.5-6c3-2.2,5.6-4.6,8-7.2c2.4-2.6,4.4-5.3,6-8.2c1.7-2.9,2.9-5.9,3.6-9.1c1,0.4,1.8,0.6,2.4,0.7
	c0.3,0,0.6,0,0.9,0.1v0h221.4v0c3.4-0.1,6.6-0.6,9.4-1.5c2.9-1,5.2-2.6,6.9-4.7c1.6,1.5,3.3,2.6,5.3,3.5c2,0.9,4.1,1.6,6.2,2.2
	s4.2,0.9,6.3,1.1c2.1,0.2,4,0.3,5.8,0.3c2.7,0,5.5-0.1,8.4-0.5c2.9-0.3,5.8-0.8,8.6-1.6c2.8-0.7,5.5-1.7,8.1-2.9s4.9-2.7,6.9-4.5
	s3.6-4,4.9-6.4c1.3-2.5,2-5.3,2.1-8.5c0.1-2.6-0.3-5.1-1.2-7.5C509.4,288,508,285.8,506.1,283.9z M496.5,301c-1.3,1.1-2.9,2-4.7,2.8
	c-1.8,0.7-3.8,1.3-6,1.7s-4.3,0.7-6.5,0.8c-2.2,0.1-4.2,0.2-6.2,0.2c-2,0-3.8-0.1-5.3-0.3c1-1.5,2.2-2.9,3.8-4.2
	c1.6-1.4,3.3-2.6,5.3-3.7c1.9-1.1,3.9-2,6-2.8s4.2-1.2,6.2-1.4c2-0.2,3.9-0.1,5.7,0.4s3.3,1.3,4.5,2.5
	C498.7,298.6,497.8,299.9,496.5,301z"/>
<path class="st0" d="M341.3,379.7l-7.5-7.5l-7.4,7.4l7.5,7.5L341.3,379.7z M574.1,392.6l-9.3-9.3l-9.3,9.3l9.3,9.3L574.1,392.6z
	 M516.1,413.2c-0.8-1.6-1.6-3.1-2.7-4.4c-1.1-1.2-2.2-2.3-3.4-3.3c-1.2-1-2.6-1.9-4-2.8s-3-1.7-4.8-2.5c-1.7-0.8-3.6-1.7-5.5-2.6
	c-3.9-1.8-7.9-3.6-12.1-5.5c-4.2-1.9-8.4-4-12.6-6.2l-8.7,15l2.2,1.4c-0.6,0.4-1.3,1-2,1.9c-0.7,0.9-1.4,1.9-2,3
	c-0.6,1.2-1.2,2.5-1.7,4s-0.8,3-1,4.6c-0.1,1.6-0.1,3.3,0.2,5s0.9,3.4,1.7,5.1l-5.5,0.1H453c-0.1,0-0.1-0.6-0.2-1.8
	c-0.1-1.2-0.3-2.8-0.7-4.8c-0.5-2.7-1.3-5.2-2.3-7.6s-2.2-4.4-3.7-6.2c-1.5-1.8-3.2-3.1-5.2-4.2c-2-1-4.2-1.5-6.7-1.5
	c-2.4,0-4.6,0.5-6.5,1.6c-2,1.1-3.7,2.5-5.3,4.1s-3,3.5-4.1,5.5c-1.2,2-2.2,4-3.1,5.9c-0.6,1.1-1.1,2.2-1.8,3.2
	c-0.6,1.1-1.3,2-2.1,2.8c-0.8,0.8-1.7,1.5-2.7,2c-1,0.5-2.2,0.8-3.5,0.8h-0.1c-0.3,0-0.7,0-1.2,0s-1-0.1-1.5-0.2
	c-0.5-0.1-1-0.3-1.5-0.6c-0.5-0.3-0.9-0.7-1.1-1.3c0.2-1,0.2-2.2,0.2-3.7s-0.1-3-0.3-4.5c-0.2-1.5-0.4-3-0.6-4.5
	c-0.2-1.5-0.5-2.7-0.7-3.8l-14.9,3.7c0.5,2.3,0.9,4.3,1.1,6c0.2,1.7,0.3,3,0.1,4.1s-0.4,2-0.9,2.6c-0.5,0.6-1.2,1.1-2.1,1.5
	s-2,0.5-3.3,0.6c-1.3,0.1-2.9,0.1-4.6,0.1H369c-1.1,0-2-0.3-2.8-0.9s-1.5-1.6-2.2-3.1s-1.1-3.3-1.6-5.6c-0.4-2.3-0.7-5.1-1-8.4
	l-13.6,2c0.1,0.9,0.1,1.9,0.1,3.1s-0.1,2.4-0.2,3.7c-0.1,1.3-0.3,2.5-0.6,3.8s-0.6,2.4-1.1,3.4c-0.5,1-1,1.8-1.6,2.5s-1.4,1-2.3,1
	c-1,0-1.8-0.3-2.4-0.9s-1-1.4-1.2-2.4s-0.4-2.1-0.4-3.4c0-1.3,0-2.5,0.1-3.8c0.1-1.3,0.2-2.5,0.4-3.8c0.2-1.2,0.3-2.3,0.4-3.2
	l-12.6-0.8c-0.2,1.3-0.5,2.6-0.7,4s-0.6,2.8-0.9,4.1c-0.4,1.4-0.8,2.6-1.2,3.9c-0.5,1.2-1,2.3-1.6,3.3s-1.3,1.7-2.1,2.3
	c-0.8,0.6-1.7,0.9-2.7,1c-0.5,0-0.9-0.3-1.1-0.9c-0.2-0.6-0.4-1.3-0.4-2.3c0-0.9,0.1-2,0.2-3.2s0.4-2.5,0.6-3.7
	c0.2-1.3,0.5-2.5,0.8-3.8s0.6-2.4,0.8-3.4l-14-2.6c-0.6,2.5-1.3,4.8-2,7c-0.7,2.2-1.5,4.1-2.3,5.8c-0.9,1.7-1.9,3-3.1,4
	c-1.2,1-2.7,1.5-4.5,1.5H46.5c-1.1,0-1.9-0.1-2.5-0.3c-0.6-0.2-1-0.6-1.2-1.1c-0.1-0.1-0.2-1-0.5-2.6s-0.6-4-1-7
	c-0.4-3-0.9-6.7-1.4-11s-1.1-9.2-1.7-14.7l-16.3,3.5l0.6,5.1c-1.1,0.5-2.4,1.1-3.9,1.9s-2.9,1.7-4.4,2.7c-1.5,1-2.9,2.2-4.4,3.5
	C8.4,407,7.1,408.4,6,410c-1.1,1.5-2,3.2-2.7,5c-0.7,1.8-1,3.6-1,5.5c0,2.8,0.6,5.2,1.7,7.3s2.6,3.7,4.6,5s4.2,2.3,6.8,2.9
	c2.6,0.6,5.4,0.9,8.3,0.9c1.2,0,2.4,0,3.5-0.1c1.2-0.1,2.4-0.2,3.7-0.3c1.5,2.2,3.6,3.8,6.2,4.8c2.5,1,5.4,1.4,8.5,1.5v0H293l0,0
	c1.6,0,3-0.2,4.4-0.5c1.4-0.3,2.7-0.7,3.8-1.2c1.1-0.5,2-1.1,2.8-1.9c0.8-0.7,1.4-1.5,1.8-2.3c0.4,0.8,1,1.6,1.8,2.4
	s1.6,1.5,2.6,2.1s2.1,1.1,3.3,1.4c1.2,0.4,2.5,0.5,3.8,0.5c1.5,0,2.9-0.2,4.1-0.6c1.3-0.4,2.4-0.9,3.4-1.5c1-0.6,1.9-1.3,2.7-2.1
	s1.4-1.6,2-2.4c0.5,0.7,1.1,1.4,1.9,2.2c0.8,0.8,1.7,1.5,2.8,2.1c1,0.6,2.2,1.2,3.4,1.6s2.6,0.6,4,0.6c1.5,0,2.9-0.1,4.1-0.5
	s2.5-0.7,3.6-1.2c1.1-0.5,2.2-1.1,3.1-1.8s1.9-1.5,2.7-2.3c1.9,1.9,4,3.3,6.4,4.1c2.3,0.8,4.7,1.2,7.2,1.2v0h5
	c1.9,0,3.7-0.1,5.5-0.3c1.8-0.2,3.5-0.5,5.1-0.9c1.6-0.4,3-0.9,4.3-1.5c1.3-0.6,2.3-1.4,3.1-2.3c0.5,0.8,1.3,1.5,2.2,2.1
	c1,0.6,2,1.2,3.2,1.6c1.2,0.4,2.5,0.8,3.8,1c1.1,0.2,2.1,0.3,3.2,0.3v0h1.7v0c2.9-0.1,5.4-0.7,7.6-1.8c2.4-1.2,4.6-2.9,6.5-4.9
	c1.5,0.9,3.2,1.8,5.1,2.6s3.8,1.5,5.7,2.2c2,0.6,3.8,1.1,5.7,1.5s3.5,0.5,4.8,0.4h0c0.4,0,0.9-0.2,1.4-0.5s1-0.6,1.5-1
	s1-0.8,1.4-1.3c0.4-0.5,0.8-0.9,1.2-1.4c0.4,0.5,0.8,1,1.3,1.5s1.1,1,1.8,1.4c0.7,0.4,1.4,0.8,2.1,1c0.7,0.3,1.5,0.4,2.2,0.4v0h1.7
	l0,0c1.7,0,3.6,0,5.5-0.1c2-0.1,3.9-0.3,5.7-0.5s3.6-0.6,5.2-1c1.6-0.4,3-1,4.1-1.6c4.4,1.5,8.7,2.5,12.8,3s8,0.4,11.6-0.4
	c3.6-0.8,6.7-2.2,9.5-4.3c2.8-2.1,5-5.1,6.6-8.8c0.7-1.6,1.1-3.3,1.2-5.1c0.1-1.8,0-3.5-0.3-5.2
	C517.4,416.5,516.8,414.8,516.1,413.2z M22.5,421.6c-1.3,0-2.5-0.1-3.6-0.3c-1.1-0.2-2-0.4-2.8-0.7c-0.8-0.3-1.2-0.6-1.2-0.9
	c-0.1-0.4,0.2-1,0.7-1.8c0.6-0.8,1.3-1.6,2.2-2.5s2-1.7,3.1-2.5c1.2-0.8,2.3-1.4,3.5-1.9l1.5,10.1C24.9,421.5,23.7,421.6,22.5,421.6
	z M437.3,425.8c-1.2-0.3-2.4-0.6-3.5-1s-2.3-0.8-3.4-1.2c-1.1-0.4-2-0.9-2.8-1.3c0.3-0.8,0.7-1.5,1.1-2.4s0.9-1.6,1.4-2.3
	s1.1-1.2,1.7-1.7s1.2-0.7,1.9-0.7c0.8,0,1.5,0.3,2.1,0.9s1.3,1.5,1.8,2.5c0.5,1,1,2.2,1.5,3.6s0.9,2.7,1.2,4.1
	C439.5,426.3,438.5,426.1,437.3,425.8z M483.7,419.7c-0.5,1-1.1,1.9-1.9,2.5c-0.8,0.7-1.6,1.2-2.5,1.5c-0.9,0.4-1.8,0.6-2.6,0.7
	c-0.6-0.2-1.3-0.5-2-1c-0.7-0.5-1.4-1-2-1.7s-1.1-1.4-1.6-2.1c-0.4-0.8-0.7-1.6-0.7-2.4c-0.1-0.9,0.1-1.8,0.6-2.8
	c0.5-1,1.1-1.9,1.9-2.8s1.6-1.6,2.5-2.1s1.7-0.9,2.4-0.9c0.5,0,1.1,0.2,1.8,0.7c0.7,0.5,1.5,1.1,2.1,1.9c0.7,0.8,1.3,1.6,1.8,2.4
	c0.5,0.9,0.8,1.7,0.8,2.4C484.4,417.4,484.2,418.7,483.7,419.7z M505.4,422.9c-0.2,1.2-0.8,2.2-1.7,2.9s-2,1.3-3.3,1.6
	c-1.3,0.4-2.7,0.6-4.1,0.6c-1.5,0-2.9,0-4.3-0.2c0.7-0.8,1.3-1.7,1.8-2.8c0.5-1.1,1-2.2,1.4-3.4c0.4-1.2,0.7-2.4,1-3.5
	s0.5-2.2,0.6-3.2c0.4,0.2,0.9,0.4,1.5,0.7c0.6,0.3,1.2,0.6,1.9,1c0.7,0.4,1.3,0.8,2,1.3c0.7,0.5,1.2,1,1.8,1.5s0.9,1.1,1.1,1.6
	C505.4,421.7,505.5,422.3,505.4,422.9z M333.8,391.9l7.9,7.9l8-8.1l-8.1-8.1l-7.9,7.9l-7.9-7.9l-8,8.1l8.1,8.1L333.8,391.9z
	 M385.3,452.6l-7.9-7.9l-8,8.1l8.1,8.1l7.9-7.9l7.9,7.9l8-8.1l-8.1-8.1L385.3,452.6z M577.1,421.9c-0.5-2.2-1.2-4.3-1.8-6.5
	s-1.3-4.2-2-6.1l-15.2,7c0.5,1.3,1.1,2.7,1.7,4.1c0.6,1.5,1.2,3,1.7,4.5s1.1,3.1,1.7,4.8c0.5,1.6,1,3.2,1.5,4.8
	c-0.2,2.2-0.9,4.4-2.3,6.6c-1.4,2.2-3.1,4.4-5.3,6.5c-2.2,2.1-4.7,4.1-7.5,6.1s-5.7,3.7-8.6,5.3l10.2,13c4-2.1,7.7-4.5,11.1-7.2
	c3.4-2.7,6.3-5.7,8.8-8.9s4.4-6.6,5.8-10.2c1.4-3.6,2.1-7.4,2.1-11.3c0-2-0.2-4-0.5-6.1S577.7,424,577.1,421.9z M601.5,403.8
	c-0.1-2.9-0.2-6.1-0.4-9.5c-0.2-3.5-0.5-7.1-0.9-11.1s-0.9-7.9-1.5-12l-16.1,5.3c0.2,1.7,0.5,3.9,0.9,6.5c0.3,2.6,0.7,5.6,1,9.1
	s0.6,7.3,0.8,11.6c0.2,4.3,0.3,9,0.3,14.1c0,1.6,0,3.4-0.1,5.4c-0.1,1.9-0.1,3.9-0.2,6c-0.1,2-0.2,4.1-0.3,6.1c-0.1,2-0.2,4-0.3,5.8
	l16.3-2.5c0.1-2.3,0.2-4.6,0.3-7.1c0.1-2.5,0.2-4.9,0.2-7.3s0.1-4.7,0.1-6.9s0-4.2,0-6C601.6,409.2,601.6,406.7,601.5,403.8z"/>
</svg>
